<svg width="182" height="33" viewBox="0 0 182 33" fill="none" xmlns="http://www.w3.org/2000/svg">
<path d="M8.375 2.15625C11.2708 2.15625 13.4375 2.78646 14.875 4.04688C16.3229 5.30729 17.0469 7.09896 17.0469 9.42188C17.0469 10.4635 16.8958 11.4635 16.5938 12.4219C16.3021 13.3802 15.8177 14.2344 15.1406 14.9844C14.474 15.7344 13.5833 16.3281 12.4688 16.7656C11.3646 17.2031 10 17.4219 8.375 17.4219H6.64062V25H0.46875V2.15625H8.375ZM8.23438 7.14062H6.64062V12.3906H7.85938C8.39062 12.3906 8.88542 12.3021 9.34375 12.125C9.80208 11.9375 10.1667 11.6406 10.4375 11.2344C10.7188 10.8177 10.8594 10.2656 10.8594 9.57812C10.8594 8.85938 10.6458 8.27604 10.2188 7.82812C9.79167 7.36979 9.13021 7.14062 8.23438 7.14062ZM26.4688 7.29688V25H20.3594V7.29688H26.4688ZM23.4375 0.171875C24.3125 0.171875 25.0729 0.354167 25.7188 0.71875C26.375 1.08333 26.7031 1.80729 26.7031 2.89062C26.7031 3.94271 26.375 4.65625 25.7188 5.03125C25.0729 5.39583 24.3125 5.57812 23.4375 5.57812C22.5417 5.57812 21.776 5.39583 21.1406 5.03125C20.5156 4.65625 20.2031 3.94271 20.2031 2.89062C20.2031 1.80729 20.5156 1.08333 21.1406 0.71875C21.776 0.354167 22.5417 0.171875 23.4375 0.171875ZM41.8125 6.98438C43.6354 6.98438 45.125 7.5 46.2812 8.53125C47.4375 9.5625 48.0156 11.2135 48.0156 13.4844V25H41.9062V15.3438C41.9062 14.1667 41.7344 13.2812 41.3906 12.6875C41.0573 12.0833 40.5156 11.7812 39.7656 11.7812C38.6094 11.7812 37.8333 12.2552 37.4375 13.2031C37.0417 14.1406 36.8438 15.4896 36.8438 17.25V25H30.7344V7.29688H35.3438L36.1719 9.64062H36.4062C36.7812 9.07812 37.2292 8.59896 37.75 8.20312C38.2708 7.80729 38.8698 7.50521 39.5469 7.29688C40.224 7.08854 40.9792 6.98438 41.8125 6.98438ZM58.3125 0.6875V10.25C58.3125 10.9688 58.2812 11.7708 58.2188 12.6562C58.1667 13.5312 58.0833 14.3281 57.9688 15.0469H58.0938C58.3333 14.6823 58.6354 14.224 59 13.6719C59.3646 13.1198 59.6927 12.6615 59.9844 12.2969L63.9531 7.29688H70.7656L64.625 14.8281L71.1562 25H64.1719L60.2969 18.6562L58.3125 20.1719V25H52.1719V0.6875H58.3125ZM86.4219 19.5625C86.4219 20.6875 86.1719 21.6823 85.6719 22.5469C85.1719 23.4115 84.3698 24.0885 83.2656 24.5781C82.1719 25.0677 80.7292 25.3125 78.9375 25.3125C77.6771 25.3125 76.5469 25.2448 75.5469 25.1094C74.5573 24.974 73.5521 24.7135 72.5312 24.3281V19.4375C73.6458 19.9479 74.7812 20.3177 75.9375 20.5469C77.0938 20.7656 78.0052 20.875 78.6719 20.875C79.3594 20.875 79.8594 20.8021 80.1719 20.6562C80.4948 20.5 80.6562 20.2708 80.6562 19.9688C80.6562 19.7083 80.5469 19.4896 80.3281 19.3125C80.1198 19.125 79.7396 18.9115 79.1875 18.6719C78.6458 18.4323 77.8802 18.1094 76.8906 17.7031C75.9115 17.2969 75.0938 16.8542 74.4375 16.375C73.7917 15.8958 73.3073 15.3229 72.9844 14.6562C72.6615 13.9896 72.5 13.1719 72.5 12.2031C72.5 10.474 73.1667 9.17188 74.5 8.29688C75.8333 7.42188 77.599 6.98438 79.7969 6.98438C80.9635 6.98438 82.0625 7.11458 83.0938 7.375C84.125 7.625 85.1927 7.99479 86.2969 8.48438L84.625 12.4219C83.75 12.026 82.8646 11.7083 81.9688 11.4688C81.0729 11.2292 80.3594 11.1094 79.8281 11.1094C79.349 11.1094 78.9792 11.1719 78.7188 11.2969C78.4583 11.4219 78.3281 11.6042 78.3281 11.8438C78.3281 12.0625 78.4167 12.2552 78.5938 12.4219C78.7812 12.5885 79.1302 12.7812 79.6406 13C80.151 13.2188 80.8958 13.526 81.875 13.9219C82.9062 14.3385 83.7552 14.7865 84.4219 15.2656C85.099 15.7344 85.599 16.3073 85.9219 16.9844C86.2552 17.6615 86.4219 18.5208 86.4219 19.5625ZM113.438 18.0625C113.438 19.3021 113.125 20.4792 112.5 21.5938C111.875 22.6979 110.901 23.5938 109.578 24.2812C108.266 24.9688 106.568 25.3125 104.484 25.3125C103.443 25.3125 102.526 25.2656 101.734 25.1719C100.953 25.0781 100.224 24.9271 99.5469 24.7188C98.8698 24.5 98.1667 24.2188 97.4375 23.875V18.375C98.6771 19 99.9271 19.4792 101.188 19.8125C102.448 20.1354 103.589 20.2969 104.609 20.2969C105.224 20.2969 105.724 20.224 106.109 20.0781C106.505 19.9323 106.797 19.7344 106.984 19.4844C107.172 19.224 107.266 18.9271 107.266 18.5938C107.266 18.1979 107.125 17.8646 106.844 17.5938C106.573 17.3125 106.135 17.0208 105.531 16.7188C104.927 16.4167 104.13 16.0417 103.141 15.5938C102.297 15.1979 101.531 14.7917 100.844 14.375C100.167 13.9583 99.5833 13.4844 99.0938 12.9531C98.6146 12.4115 98.2448 11.7812 97.9844 11.0625C97.724 10.3438 97.5938 9.49479 97.5938 8.51562C97.5938 7.04688 97.9531 5.81771 98.6719 4.82812C99.401 3.82812 100.411 3.07812 101.703 2.57812C103.005 2.07812 104.505 1.82812 106.203 1.82812C107.693 1.82812 109.031 1.99479 110.219 2.32812C111.417 2.66146 112.49 3.04167 113.438 3.46875L111.547 8.23438C110.568 7.78646 109.604 7.43229 108.656 7.17188C107.708 6.90104 106.828 6.76562 106.016 6.76562C105.484 6.76562 105.047 6.83333 104.703 6.96875C104.37 7.09375 104.12 7.26562 103.953 7.48438C103.797 7.70312 103.719 7.95312 103.719 8.23438C103.719 8.58854 103.854 8.90625 104.125 9.1875C104.406 9.46875 104.87 9.77604 105.516 10.1094C106.172 10.4323 107.062 10.8542 108.188 11.375C109.302 11.875 110.25 12.4167 111.031 13C111.812 13.5729 112.406 14.2656 112.812 15.0781C113.229 15.8802 113.438 16.875 113.438 18.0625ZM122.75 7.29688V25H116.641V7.29688H122.75ZM119.719 0.171875C120.594 0.171875 121.354 0.354167 122 0.71875C122.656 1.08333 122.984 1.80729 122.984 2.89062C122.984 3.94271 122.656 4.65625 122 5.03125C121.354 5.39583 120.594 5.57812 119.719 5.57812C118.823 5.57812 118.057 5.39583 117.422 5.03125C116.797 4.65625 116.484 3.94271 116.484 2.89062C116.484 1.80729 116.797 1.08333 117.422 0.71875C118.057 0.354167 118.823 0.171875 119.719 0.171875ZM133.062 32.6875C130.552 32.6875 128.615 32.2656 127.25 31.4219C125.896 30.5885 125.219 29.3854 125.219 27.8125C125.219 26.7604 125.547 25.8906 126.203 25.2031C126.859 24.5156 127.844 24.0208 129.156 23.7188C128.615 23.4896 128.141 23.1198 127.734 22.6094C127.339 22.099 127.141 21.5938 127.141 21.0938C127.141 20.5417 127.292 20.0573 127.594 19.6406C127.896 19.2135 128.526 18.7083 129.484 18.125C128.568 17.7188 127.844 17.0833 127.312 16.2188C126.792 15.3542 126.531 14.3021 126.531 13.0625C126.531 11.7812 126.823 10.6875 127.406 9.78125C128 8.875 128.859 8.18229 129.984 7.70312C131.12 7.22396 132.5 6.98438 134.125 6.98438C134.344 6.98438 134.677 7.00521 135.125 7.04688C135.573 7.07812 136.026 7.11979 136.484 7.17188C136.943 7.21354 137.297 7.25521 137.547 7.29688H143.719V10.25L141.297 11.1406C141.464 11.4427 141.589 11.7708 141.672 12.125C141.755 12.4792 141.797 12.8542 141.797 13.25C141.797 15.1562 141.125 16.6354 139.781 17.6875C138.448 18.7396 136.453 19.2656 133.797 19.2656C133.141 19.2656 132.62 19.224 132.234 19.1406C132.161 19.276 132.104 19.4115 132.062 19.5469C132.031 19.6719 132.016 19.7917 132.016 19.9062C132.016 20.1458 132.156 20.3385 132.438 20.4844C132.729 20.6198 133.078 20.7135 133.484 20.7656C133.901 20.8177 134.297 20.8438 134.672 20.8438H137.609C139.599 20.8438 141.089 21.2604 142.078 22.0938C143.068 22.9271 143.562 24.1823 143.562 25.8594C143.562 28.0156 142.641 29.6927 140.797 30.8906C138.964 32.0885 136.385 32.6875 133.062 32.6875ZM133.359 28.875C134.099 28.875 134.844 28.8073 135.594 28.6719C136.344 28.5469 136.974 28.3385 137.484 28.0469C137.995 27.7552 138.25 27.3698 138.25 26.8906C138.25 26.526 138.099 26.25 137.797 26.0625C137.495 25.8854 137.104 25.7656 136.625 25.7031C136.146 25.6406 135.641 25.6094 135.109 25.6094H132.734C132.297 25.6094 131.896 25.6771 131.531 25.8125C131.177 25.9583 130.896 26.151 130.688 26.3906C130.479 26.6302 130.375 26.901 130.375 27.2031C130.375 27.7031 130.646 28.1042 131.188 28.4062C131.729 28.7188 132.453 28.875 133.359 28.875ZM134.188 15.8125C134.771 15.8125 135.219 15.5885 135.531 15.1406C135.854 14.6927 136.016 14.0208 136.016 13.125C136.016 12.2083 135.865 11.5208 135.562 11.0625C135.26 10.6042 134.802 10.375 134.188 10.375C133.552 10.375 133.078 10.6042 132.766 11.0625C132.453 11.5104 132.297 12.1875 132.297 13.0938C132.297 14 132.453 14.6823 132.766 15.1406C133.078 15.5885 133.552 15.8125 134.188 15.8125ZM157.5 6.98438C159.323 6.98438 160.812 7.5 161.969 8.53125C163.125 9.5625 163.703 11.2135 163.703 13.4844V25H157.594V15.3438C157.594 14.1667 157.422 13.2812 157.078 12.6875C156.745 12.0833 156.203 11.7812 155.453 11.7812C154.297 11.7812 153.521 12.2552 153.125 13.2031C152.729 14.1406 152.531 15.4896 152.531 17.25V25H146.422V7.29688H151.031L151.859 9.64062H152.094C152.469 9.07812 152.917 8.59896 153.438 8.20312C153.958 7.80729 154.557 7.50521 155.234 7.29688C155.911 7.08854 156.667 6.98438 157.5 6.98438ZM181.016 19.5625C181.016 20.6875 180.766 21.6823 180.266 22.5469C179.766 23.4115 178.964 24.0885 177.859 24.5781C176.766 25.0677 175.323 25.3125 173.531 25.3125C172.271 25.3125 171.141 25.2448 170.141 25.1094C169.151 24.974 168.146 24.7135 167.125 24.3281V19.4375C168.24 19.9479 169.375 20.3177 170.531 20.5469C171.688 20.7656 172.599 20.875 173.266 20.875C173.953 20.875 174.453 20.8021 174.766 20.6562C175.089 20.5 175.25 20.2708 175.25 19.9688C175.25 19.7083 175.141 19.4896 174.922 19.3125C174.714 19.125 174.333 18.9115 173.781 18.6719C173.24 18.4323 172.474 18.1094 171.484 17.7031C170.505 17.2969 169.688 16.8542 169.031 16.375C168.385 15.8958 167.901 15.3229 167.578 14.6562C167.255 13.9896 167.094 13.1719 167.094 12.2031C167.094 10.474 167.76 9.17188 169.094 8.29688C170.427 7.42188 172.193 6.98438 174.391 6.98438C175.557 6.98438 176.656 7.11458 177.688 7.375C178.719 7.625 179.786 7.99479 180.891 8.48438L179.219 12.4219C178.344 12.026 177.458 11.7083 176.562 11.4688C175.667 11.2292 174.953 11.1094 174.422 11.1094C173.943 11.1094 173.573 11.1719 173.312 11.2969C173.052 11.4219 172.922 11.6042 172.922 11.8438C172.922 12.0625 173.01 12.2552 173.188 12.4219C173.375 12.5885 173.724 12.7812 174.234 13C174.745 13.2188 175.49 13.526 176.469 13.9219C177.5 14.3385 178.349 14.7865 179.016 15.2656C179.693 15.7344 180.193 16.3073 180.516 16.9844C180.849 17.6615 181.016 18.5208 181.016 19.5625Z" fill="url(#paint0_linear_190_2935)"/>
<defs>
<linearGradient id="paint0_linear_190_2935" x1="183" y1="13" x2="-2" y2="13" gradientUnits="userSpaceOnUse">
<stop stop-color="#ED437F"/>
<stop offset="0.451923" stop-color="#9842B4"/>
<stop offset="1" stop-color="#534AE5"/>
</linearGradient>
</defs>
</svg>
