<svg width="280" height="180" viewBox="0 0 280 180" fill="none" xmlns="http://www.w3.org/2000/svg">
<g clip-path="url(#clip0_200_3329)">
<path d="M260 0H20C8.9543 0 0 8.9543 0 20V160C0 171.046 8.9543 180 20 180H260C271.046 180 280 171.046 280 160V20C280 8.9543 271.046 0 260 0Z" fill="#F0F0F0" stroke="#E0E0E0"/>
<path d="M70.8867 107V71.6H78.0367V100.4H95.9867V107H70.8867ZM116.074 107.4C112.441 107.4 109.308 106.633 106.674 105.1C104.074 103.567 102.074 101.45 100.674 98.75C99.3076 96.0167 98.6242 92.8833 98.6242 89.35C98.6242 85.75 99.3242 82.5833 100.724 79.85C102.158 77.1167 104.191 75 106.824 73.5C109.458 71.9667 112.591 71.2 116.224 71.2C119.824 71.2 122.924 71.95 125.524 73.45C128.124 74.95 130.124 77.05 131.524 79.75C132.958 82.45 133.674 85.6 133.674 89.2C133.674 92.7333 132.958 95.8833 131.524 98.65C130.124 101.383 128.108 103.533 125.474 105.1C122.874 106.633 119.741 107.4 116.074 107.4ZM116.174 100.7C118.574 100.7 120.524 100.15 122.024 99.05C123.524 97.95 124.608 96.5333 125.274 94.8C125.974 93.0667 126.324 91.25 126.324 89.35C126.324 87.95 126.124 86.5667 125.724 85.2C125.358 83.8333 124.774 82.6 123.974 81.5C123.174 80.4 122.124 79.5333 120.824 78.9C119.524 78.2333 117.958 77.9 116.124 77.9C113.758 77.9 111.824 78.45 110.324 79.55C108.824 80.6167 107.708 82.0167 106.974 83.75C106.274 85.4833 105.924 87.3333 105.924 89.3C105.924 91.2667 106.274 93.1167 106.974 94.85C107.708 96.5833 108.824 98 110.324 99.1C111.858 100.167 113.808 100.7 116.174 100.7ZM154.833 107.4C151.233 107.4 148.167 106.65 145.633 105.15C143.1 103.617 141.167 101.5 139.833 98.8C138.5 96.0667 137.833 92.8833 137.833 89.25C137.833 86.55 138.2 84.1 138.933 81.9C139.7 79.6667 140.8 77.75 142.233 76.15C143.7 74.55 145.483 73.3333 147.583 72.5C149.683 71.6333 152.067 71.2 154.733 71.2C157.433 71.2 159.85 71.6333 161.983 72.5C164.117 73.3667 165.883 74.6667 167.283 76.4C168.717 78.1 169.65 80.2333 170.083 82.8H162.833C162.567 81.7 162.083 80.8 161.383 80.1C160.683 79.3667 159.8 78.8167 158.733 78.45C157.7 78.0833 156.517 77.9 155.183 77.9C153.35 77.9 151.8 78.2167 150.533 78.85C149.267 79.4833 148.233 80.35 147.433 81.45C146.667 82.5167 146.1 83.75 145.733 85.15C145.4 86.5167 145.233 87.9333 145.233 89.4C145.233 91.4 145.567 93.2667 146.233 95C146.9 96.7 147.95 98.0833 149.383 99.15C150.817 100.183 152.717 100.7 155.083 100.7C156.65 100.7 158.033 100.467 159.233 100C160.467 99.5 161.45 98.7667 162.183 97.8C162.95 96.8 163.383 95.6 163.483 94.2H153.833V88.05H170.833V90C170.833 93.6 170.233 96.7 169.033 99.3C167.833 101.9 166.05 103.9 163.683 105.3C161.317 106.7 158.367 107.4 154.833 107.4ZM192.441 107.4C188.808 107.4 185.675 106.633 183.041 105.1C180.441 103.567 178.441 101.45 177.041 98.75C175.675 96.0167 174.991 92.8833 174.991 89.35C174.991 85.75 175.691 82.5833 177.091 79.85C178.525 77.1167 180.558 75 183.191 73.5C185.825 71.9667 188.958 71.2 192.591 71.2C196.191 71.2 199.291 71.95 201.891 73.45C204.491 74.95 206.491 77.05 207.891 79.75C209.325 82.45 210.041 85.6 210.041 89.2C210.041 92.7333 209.325 95.8833 207.891 98.65C206.491 101.383 204.475 103.533 201.841 105.1C199.241 106.633 196.108 107.4 192.441 107.4ZM192.541 100.7C194.941 100.7 196.891 100.15 198.391 99.05C199.891 97.95 200.975 96.5333 201.641 94.8C202.341 93.0667 202.691 91.25 202.691 89.35C202.691 87.95 202.491 86.5667 202.091 85.2C201.725 83.8333 201.141 82.6 200.341 81.5C199.541 80.4 198.491 79.5333 197.191 78.9C195.891 78.2333 194.325 77.9 192.491 77.9C190.125 77.9 188.191 78.45 186.691 79.55C185.191 80.6167 184.075 82.0167 183.341 83.75C182.641 85.4833 182.291 87.3333 182.291 89.3C182.291 91.2667 182.641 93.1167 183.341 94.85C184.075 96.5833 185.191 98 186.691 99.1C188.225 100.167 190.175 100.7 192.541 100.7Z" fill="#AEABAB"/>
</g>
<defs>
<clipPath id="clip0_200_3329">
<rect width="280" height="180" fill="white"/>
</clipPath>
</defs>
</svg>
