<svg width="186" height="26" viewBox="0 0 186 26" fill="none" xmlns="http://www.w3.org/2000/svg">
<path d="M16.4062 18.0625C16.4062 19.3021 16.0938 20.4792 15.4688 21.5938C14.8438 22.6979 13.8698 23.5938 12.5469 24.2812C11.2344 24.9688 9.53646 25.3125 7.45312 25.3125C6.41146 25.3125 5.49479 25.2656 4.70312 25.1719C3.92188 25.0781 3.19271 24.9271 2.51562 24.7188C1.83854 24.5 1.13542 24.2188 0.40625 23.875V18.375C1.64583 19 2.89583 19.4792 4.15625 19.8125C5.41667 20.1354 6.55729 20.2969 7.57812 20.2969C8.19271 20.2969 8.69271 20.224 9.07812 20.0781C9.47396 19.9323 9.76562 19.7344 9.95312 19.4844C10.1406 19.224 10.2344 18.9271 10.2344 18.5938C10.2344 18.1979 10.0938 17.8646 9.8125 17.5938C9.54167 17.3125 9.10417 17.0208 8.5 16.7188C7.89583 16.4167 7.09896 16.0417 6.10938 15.5938C5.26562 15.1979 4.5 14.7917 3.8125 14.375C3.13542 13.9583 2.55208 13.4844 2.0625 12.9531C1.58333 12.4115 1.21354 11.7812 0.953125 11.0625C0.692708 10.3438 0.5625 9.49479 0.5625 8.51562C0.5625 7.04688 0.921875 5.81771 1.64062 4.82812C2.36979 3.82812 3.38021 3.07812 4.67188 2.57812C5.97396 2.07812 7.47396 1.82812 9.17188 1.82812C10.6615 1.82812 12 1.99479 13.1875 2.32812C14.3854 2.66146 15.4583 3.04167 16.4062 3.46875L14.5156 8.23438C13.5365 7.78646 12.5729 7.43229 11.625 7.17188C10.6771 6.90104 9.79688 6.76562 8.98438 6.76562C8.45312 6.76562 8.01562 6.83333 7.67188 6.96875C7.33854 7.09375 7.08854 7.26562 6.92188 7.48438C6.76562 7.70312 6.6875 7.95312 6.6875 8.23438C6.6875 8.58854 6.82292 8.90625 7.09375 9.1875C7.375 9.46875 7.83854 9.77604 8.48438 10.1094C9.14062 10.4323 10.0312 10.8542 11.1562 11.375C12.2708 11.875 13.2188 12.4167 14 13C14.7812 13.5729 15.375 14.2656 15.7812 15.0781C16.1979 15.8802 16.4062 16.875 16.4062 18.0625ZM28.25 20.4844C28.8021 20.4844 29.3073 20.4271 29.7656 20.3125C30.224 20.1979 30.7031 20.0521 31.2031 19.875V24.3281C30.5365 24.6198 29.8281 24.8542 29.0781 25.0312C28.3385 25.2188 27.3906 25.3125 26.2344 25.3125C25.0885 25.3125 24.0781 25.1354 23.2031 24.7812C22.3281 24.4167 21.6458 23.7917 21.1562 22.9062C20.6771 22.0104 20.4375 20.7656 20.4375 19.1719V11.875H18.2969V9.39062L21.0156 7.46875L22.5938 3.75H26.5938V7.29688H30.9375V11.875H26.5938V18.7656C26.5938 19.3385 26.7396 19.7708 27.0312 20.0625C27.3229 20.3438 27.7292 20.4844 28.25 20.4844ZM51.5156 7.29688V25H46.9062L46.1406 22.7969H45.7812C45.4167 23.3906 44.9531 23.875 44.3906 24.25C43.8385 24.6146 43.224 24.8802 42.5469 25.0469C41.8698 25.224 41.1667 25.3125 40.4375 25.3125C39.2812 25.3125 38.2344 25.0885 37.2969 24.6406C36.3698 24.1927 35.6302 23.4896 35.0781 22.5312C34.5365 21.5729 34.2656 20.3385 34.2656 18.8281V7.29688H40.375V16.9688C40.375 18.1146 40.5365 18.9896 40.8594 19.5938C41.1927 20.1875 41.7344 20.4844 42.4844 20.4844C43.2552 20.4844 43.849 20.276 44.2656 19.8594C44.6927 19.4427 44.9896 18.8281 45.1562 18.0156C45.3229 17.2031 45.4062 16.2135 45.4062 15.0469V7.29688H51.5156ZM61.2344 25.3125C59.4115 25.3125 57.9115 24.5365 56.7344 22.9844C55.5573 21.4323 54.9688 19.1615 54.9688 16.1719C54.9688 13.151 55.5729 10.8646 56.7812 9.3125C57.9896 7.76042 59.5521 6.98438 61.4688 6.98438C62.2604 6.98438 62.9427 7.09896 63.5156 7.32812C64.0885 7.55729 64.5833 7.86979 65 8.26562C65.4271 8.65104 65.7969 9.08854 66.1094 9.57812H66.2344C66.1615 9.13021 66.0938 8.51562 66.0312 7.73438C65.9688 6.94271 65.9375 6.17188 65.9375 5.42188V0.6875H72.0938V25H67.4844L66.1719 22.7656H65.9375C65.6562 23.2344 65.3021 23.6615 64.875 24.0469C64.4583 24.4323 63.9479 24.7396 63.3438 24.9688C62.75 25.1979 62.0469 25.3125 61.2344 25.3125ZM63.7344 20.4844C64.7135 20.4844 65.401 20.1771 65.7969 19.5625C66.2031 18.9375 66.4219 17.9896 66.4531 16.7188V16.2344C66.4531 14.8385 66.2552 13.7708 65.8594 13.0312C65.474 12.2812 64.7448 11.9062 63.6719 11.9062C62.9427 11.9062 62.3385 12.2604 61.8594 12.9688C61.3802 13.6771 61.1406 14.776 61.1406 16.2656C61.1406 17.7344 61.3802 18.8073 61.8594 19.4844C62.349 20.151 62.974 20.4844 63.7344 20.4844ZM82.4688 7.29688V25H76.3594V7.29688H82.4688ZM79.4375 0.171875C80.3125 0.171875 81.0729 0.354167 81.7188 0.71875C82.375 1.08333 82.7031 1.80729 82.7031 2.89062C82.7031 3.94271 82.375 4.65625 81.7188 5.03125C81.0729 5.39583 80.3125 5.57812 79.4375 5.57812C78.5417 5.57812 77.776 5.39583 77.1406 5.03125C76.5156 4.65625 76.2031 3.94271 76.2031 2.89062C76.2031 1.80729 76.5156 1.08333 77.1406 0.71875C77.776 0.354167 78.5417 0.171875 79.4375 0.171875ZM103.641 16.1094C103.641 17.5885 103.438 18.901 103.031 20.0469C102.625 21.1927 102.036 22.1562 101.266 22.9375C100.495 23.7188 99.5625 24.3125 98.4688 24.7188C97.375 25.1146 96.1406 25.3125 94.7656 25.3125C93.4844 25.3125 92.3073 25.1146 91.2344 24.7188C90.1719 24.3125 89.2448 23.7188 88.4531 22.9375C87.6615 22.1562 87.0469 21.1927 86.6094 20.0469C86.1823 18.901 85.9688 17.5885 85.9688 16.1094C85.9688 14.151 86.3229 12.4948 87.0312 11.1406C87.75 9.78646 88.7708 8.75521 90.0938 8.04688C91.4271 7.33854 93.0156 6.98438 94.8594 6.98438C96.5573 6.98438 98.0677 7.33854 99.3906 8.04688C100.714 8.75521 101.75 9.78646 102.5 11.1406C103.26 12.4948 103.641 14.151 103.641 16.1094ZM92.1719 16.1094C92.1719 17.1198 92.2604 17.974 92.4375 18.6719C92.6146 19.3594 92.8958 19.8854 93.2812 20.25C93.6771 20.6042 94.1927 20.7812 94.8281 20.7812C95.4635 20.7812 95.9688 20.6042 96.3438 20.25C96.7188 19.8854 96.9896 19.3594 97.1562 18.6719C97.3333 17.974 97.4219 17.1198 97.4219 16.1094C97.4219 15.099 97.3333 14.2552 97.1562 13.5781C96.9896 12.901 96.7135 12.3906 96.3281 12.0469C95.9531 11.7031 95.4427 11.5312 94.7969 11.5312C93.8698 11.5312 93.1979 11.9167 92.7812 12.6875C92.375 13.4583 92.1719 14.599 92.1719 16.1094ZM123.719 2.15625C126.615 2.15625 128.781 2.78646 130.219 4.04688C131.667 5.30729 132.391 7.09896 132.391 9.42188C132.391 10.4635 132.24 11.4635 131.938 12.4219C131.646 13.3802 131.161 14.2344 130.484 14.9844C129.818 15.7344 128.927 16.3281 127.812 16.7656C126.708 17.2031 125.344 17.4219 123.719 17.4219H121.984V25H115.812V2.15625H123.719ZM123.578 7.14062H121.984V12.3906H123.203C123.734 12.3906 124.229 12.3021 124.688 12.125C125.146 11.9375 125.51 11.6406 125.781 11.2344C126.062 10.8177 126.203 10.2656 126.203 9.57812C126.203 8.85938 125.99 8.27604 125.562 7.82812C125.135 7.36979 124.474 7.14062 123.578 7.14062ZM141.812 7.29688V25H135.703V7.29688H141.812ZM138.781 0.171875C139.656 0.171875 140.417 0.354167 141.062 0.71875C141.719 1.08333 142.047 1.80729 142.047 2.89062C142.047 3.94271 141.719 4.65625 141.062 5.03125C140.417 5.39583 139.656 5.57812 138.781 5.57812C137.885 5.57812 137.12 5.39583 136.484 5.03125C135.859 4.65625 135.547 3.94271 135.547 2.89062C135.547 1.80729 135.859 1.08333 136.484 0.71875C137.12 0.354167 137.885 0.171875 138.781 0.171875ZM157.156 6.98438C158.979 6.98438 160.469 7.5 161.625 8.53125C162.781 9.5625 163.359 11.2135 163.359 13.4844V25H157.25V15.3438C157.25 14.1667 157.078 13.2812 156.734 12.6875C156.401 12.0833 155.859 11.7812 155.109 11.7812C153.953 11.7812 153.177 12.2552 152.781 13.2031C152.385 14.1406 152.188 15.4896 152.188 17.25V25H146.078V7.29688H150.688L151.516 9.64062H151.75C152.125 9.07812 152.573 8.59896 153.094 8.20312C153.615 7.80729 154.214 7.50521 154.891 7.29688C155.568 7.08854 156.323 6.98438 157.156 6.98438ZM171.266 15.9688L165.859 7.29688H172.797L175.484 12.2656L178.234 7.29688H185.188L179.641 15.9688L185.406 25H178.469L175.484 19.625L172.516 25H165.562L171.266 15.9688Z" fill="url(#paint0_linear_190_2935)"/>
<defs>
<linearGradient id="paint0_linear_190_2935" x1="186" y1="13" x2="-1" y2="13" gradientUnits="userSpaceOnUse">
<stop stop-color="#ED437F"/>
<stop offset="0.451923" stop-color="#9842B4"/>
<stop offset="1" stop-color="#534AE5"/>
</linearGradient>
</defs>
</svg>
