<svg width="600" height="400" viewBox="0 0 600 400" fill="none" xmlns="http://www.w3.org/2000/svg">
<g clip-path="url(#clip0_200_3337)">
<path d="M600 0H0V400H600V0Z" fill="url(#paint0_linear_200_3337)"/>
<path d="M448 90H152C145.373 90 140 95.3726 140 102V298C140 304.627 145.373 310 152 310H448C454.627 310 460 304.627 460 298V102C460 95.3726 454.627 90 448 90Z" fill="#F7F7F7" stroke="#D9D9D9"/>
<path d="M180 260L260 190L310 230L360 200L420 260H180Z" fill="#E0E0E0"/>
<path d="M230 202C242.15 202 252 192.15 252 180C252 167.85 242.15 158 230 158C217.85 158 208 167.85 208 180C208 192.15 217.85 202 230 202Z" fill="#E0E0E0"/>
</g>
<defs>
<linearGradient id="paint0_linear_200_3337" x1="0" y1="0" x2="369.231" y2="553.846" gradientUnits="userSpaceOnUse">
<stop stop-color="#EEEEEE"/>
<stop offset="1" stop-color="#DDDDDD"/>
</linearGradient>
<clipPath id="clip0_200_3337">
<rect width="600" height="400" fill="white"/>
</clipPath>
</defs>
</svg>
